<?xml version="1.0" encoding="UTF-8"?>
<svg id="Layer_1" data-name="Layer 1" xmlns="http://www.w3.org/2000/svg" viewBox="0 0 595.28 747.08">
  <defs>
    <style>
      .cls-1 {
        fill: #a56728;
      }

      .cls-2 {
        fill: #d3d9da;
      }

      .cls-3 {
        fill: #6f6560;
      }

      .cls-4 {
        fill: #58607d;
      }

      .cls-5 {
        fill: #c44127;
      }

      .cls-6 {
        fill: #1d4994;
      }

      .cls-7 {
        fill: #1d4a91;
      }

      .cls-8 {
        fill: #822b1b;
      }

      .cls-9 {
        fill: #341a15;
      }

      .cls-10 {
        fill: #1c4589;
      }

      .cls-11 {
        fill: #1e4893;
      }

      .cls-12 {
        fill: #424c62;
      }

      .cls-13 {
        fill: #133455;
      }

      .cls-14 {
        fill: #343332;
      }

      .cls-15 {
        fill: #df674c;
      }

      .cls-16 {
        fill: #8b391e;
      }

      .cls-17 {
        fill: #5b98d1;
      }

      .cls-18 {
        fill: #ece6dd;
      }

      .cls-19 {
        fill: #922f1e;
      }

      .cls-20 {
        fill: #be1e2d;
      }

      .cls-21 {
        fill: #d58629;
      }

      .cls-22 {
        fill: #2f2f2e;
      }

      .cls-23 {
        fill: #050506;
      }

      .cls-24 {
        fill: #df8f2d;
      }

      .cls-25 {
        fill: #31302e;
      }

      .cls-26 {
        fill: #c4c3bd;
      }

      .cls-27 {
        fill: #164271;
      }

      .cls-28 {
        fill: #d1bfab;
      }

      .cls-29 {
        fill: #40485b;
      }

      .cls-30 {
        fill: #3e332e;
      }

      .cls-31 {
        fill: #050505;
      }

      .cls-32 {
        fill: #0d0b0a;
      }

      .cls-33 {
        fill: #080707;
      }

      .cls-34 {
        fill: #1c4890;
      }

      .cls-35 {
        fill: #fbf8f5;
      }

      .cls-36 {
        fill: #5f5352;
      }

      .cls-37 {
        fill: #352e2b;
      }

      .cls-38 {
        fill: #b0716b;
      }

      .cls-39 {
        fill: #ca5327;
      }

      .cls-40 {
        fill: #8e9c9d;
      }

      .cls-41 {
        fill: #f1ebe4;
      }

      .cls-42 {
        fill: #3a3633;
      }

      .cls-43 {
        fill: #9c9e9e;
      }

      .cls-44 {
        fill: #633429;
      }

      .cls-45 {
        fill: #1b468d;
      }

      .cls-46 {
        fill: #a63c2c;
      }

      .cls-47 {
        fill: #ee5523;
      }

      .cls-48 {
        fill: #5895d0;
      }

      .cls-49 {
        fill: #1d4891;
      }

      .cls-50 {
        fill: #b3732a;
      }

      .cls-51 {
        fill: none;
        stroke: #2e3192;
        stroke-miterlimit: 10;
        stroke-width: 3px;
      }

      .cls-52 {
        fill: #787386;
      }

      .cls-53 {
        fill: #eae6e2;
      }

      .cls-54 {
        fill: #0d0a0a;
      }

      .cls-55 {
        fill: #343130;
      }

      .cls-56 {
        fill: #1d4790;
      }

      .cls-57 {
        fill: #0c0c0d;
      }

      .cls-58 {
        fill: #47271b;
      }

      .cls-59 {
        fill: #ececea;
      }
    </style>
  </defs>
  <path class="cls-51" d="M394.77,139.95c-12.58,19.3-22.63,12.74-35.21,32.04-12.58,19.3-2.53,25.85-15.1,45.15-12.58,19.3-22.63,12.74-35.21,32.04s-2.53,25.85-15.1,45.15-22.63,12.75-35.21,32.05-2.53,25.85-15.11,45.15"/>
  <path class="cls-51" d="M435.05,139.77c-13.14,21.79-23.41,15.6-36.55,37.39-13.14,21.79-2.86,27.99-15.99,49.78-13.14,21.79-23.41,15.6-36.55,37.39-13.14,21.79-2.86,27.99-16,49.78s-23.42,15.6-36.55,37.39c-13.14,21.79-2.86,27.99-16,49.78"/>
  <path class="cls-51" d="M342.97,152.69c-11.76,19.5-22.04,13.31-33.79,32.81-11.76,19.51-1.48,25.7-13.24,45.21s-22.04,13.31-33.79,32.82-1.48,25.7-13.24,45.21-22.04,13.31-33.8,32.82-1.48,25.7-13.24,45.21"/>
  <g>
    <path class="cls-23" d="M399.49,148.82c-3.06.12-3.43-1.58-.74-3.04l.58-2.02,77.61-4.12c-.26-1.31-1.04-2.63-2.33-3.98l-97.68,5.6c-.62-.91-2.02-1.49-4.21-1.75l-.8,2.03-66.73,3.95c.85,1.46,1.85,2.59,2.99,3.41l65.57-3.84,1.31,1.91c1.37-2.5,2.72-3.15,3.83-.2,4.3-.31,8.65-.59,13.03-.85-.12-2.79,1.38-2.6,2.1-.02,5.22.99-.1,6.72-3.39,3.68l-85.22,4.67c-6.81-8.26-11.85-10.57-6.68-19.34l74.44-4.83-3.83-5.31,11.37-54.6c.57-2.74.42-5.06-1.62-6.99l-5.55,10.09-110.59,11.25-53.33,5.41c-2.77-2.83-1.89-6.18.08-9.16l21.71-32.79,70.51-7.83,88.53-9.34c2.51.96,2.73,6.55,1.37,8.84,9.33-4.03,19.27-6.44,28.94-3.21l7.21,5.03,8.75-15L592.9,0c2.13,1.8,3.03,4.83,1.86,7.27l-18.03,37.58-132.33,19.24-6.32,30.88c-.33,1.61-3.96,1.89-6.12,1.04l-7.01,31.23,54-3.37,7.37,10.72c1.79,2.61.78,6.88-.77,9.73l-86.07,4.51Z"/>
    <g>
      <g>
        <path class="cls-7" d="M382.79,41.95l-.94-.14-13.95,25.87c-.76.67-18.39,2.29-19.98.83-1.69,1.89-23.25,4.55-24.27,3.84l-1.66-2.27,18.08-30.86,22.87-2.62,23.83-2.31c-.85,3.41-2.66,5.22-3.98,7.66Z"/>
        <path class="cls-49" d="M308.66,42.64c-6.27,11.09-12.71,22.17-19.34,33.26-10.04,1.48-20.14,2.61-30.32,3.37l-1.78-2.18,7.13-12.05-1.2-.38-1.73,1.46-7.01-2.79c-15.7,3.6-8.63-7.38-2.22-14.28l56.45-6.4Z"/>
        <path class="cls-17" d="M382.79,41.95l-12.35,22.97c-.97,1.8-1.35,3.14-.68,5.54l-159.24,15.94,22.78-35.57c2.7.25,2.97.68,2.25,3.15-5.31,8.53-10.21,16.94-14.68,25.23,5.08.27,9.49-.81,13.22-3.24,2.33,1.81,17.69.96,19.76-.16l6.91-11.05,2.41-.12,9.73-14.26,1.16.66-15.6,26.35,29.81-3,20.41-31.75,1.18-.17,1.38,1.57-15.47,26.85c7.61-.17,15.28-.81,23.02-1.91l17.81-27.98,3.48-1.77-16.8,31.37,22.56-2.47,12.58-20.71c.34.4.74.68.96.77l-10.5,19.48,18.74-1.79,14.48-26.33c1.06.38,1.03,1.37.71,2.41Z"/>
        <polygon class="cls-34" points="340.06 39.22 319.82 71.02 291.88 73.64 309.84 42.47 340.06 39.22"/>
        <path class="cls-7" d="M252.21,49.04c.35.37.41.77.44,1.06.06.57-.42,1.08-.64,1.46l-6.14,10.59,8.86-.77,8.44,3.26-8.23,13.16-18.76,1.73-1.78-2.09c-.27-.31-1.35,2.02-2.01,2.21-5.03,1.47-9.96,1.44-15.45,1.74,4.59-9.72,16.94-26.33,17.14-29.35.02-.32-.63-.64-.78-1.21l18.92-1.79Z"/>
        <path class="cls-13" d="M372.6,68.57c-.5-4.71,2.78-7.94,4.75-11.7l11.72-22.41c.41.41.91.77,1.22.89l-17.69,33.22Z"/>
        <path class="cls-36" d="M383.53,55.89l-.87,6.57c-1.61-.88-1.47-1.99-1.49-3.53-.02-1.44-.11-3.3,2.36-3.04Z"/>
      </g>
      <g>
        <path class="cls-26" d="M398.75,145.78l-4.74.13-2.1.02c-4.4.22-8.74.5-13.03.85l-3.83.2c-1.53-1.17-1.47-2.28-.83-3.87-1.69-1-2.53-1.64-1.51-3.6l102.99-5.91,5.38,7.8-82.33,4.37Z"/>
        <rect class="cls-59" x="299.71" y="132.36" width="176.66" height="4.18" transform="translate(-7.37 23.54) rotate(-3.44)"/>
        <path class="cls-40" d="M372.71,139.51c.68.84,1.51,1.55,3.85,1.28-.14,2.01-.68,4.21-1.52,6.19l-68.26,4-5.53-7.42,71.45-4.04Z"/>
        <path class="cls-43" d="M483.72,136.58c.92,1.38-.32,2.44-1.01,2.23-.56-.17-6.76-6.86-4.33-10.28l5.33,8.04Z"/>
        <path class="cls-40" d="M391.91,145.92c-.36.44-1.05.87-2.02.86h-11c-.04-.34.28-.98,1.05-.97l11.97.11Z"/>
      </g>
      <g>
        <path class="cls-48" d="M586.38,9.92l-13.21,27.42c-.72,1.5-.17,3.04-.26,4.75l-154.32,22.39,19.4-34.76c2.79-.38,3,.75,2.5,3.36-4.13,7.78-8.05,15.57-11.73,23.37l7.94-.82c2.41-4,7.1-9.15,6.94-1.41-.02.75,13.69-1.38,14.52-2.05,4.91-8.58,10.12-16.95,15.65-25.13l2.28.57c1.05.77,1.9,1.77,1.37,3l-10.85,20.08c15.54-2.15,23.31-3.23,23.31-3.23l17.06-29.03,1.84-.91.99-.1c2.29-.42,3.17.1,2.63,1.59l-14.4,27.2c7.71-.69,15.36-1.77,22.94-3.25l16.91-28.9,2.99-1.21c2.53-1.19,3.2.09,2.26,2.57l-14.16,26.35c6.42-.76,12.73-1.8,18.94-3.12l13.29-23.62c.82-1.56,1.96-1.44,3.31-.21l1.37,1.69c-3.71,6.97-7.11,13.96-10.18,20.99l13.52-2.18c4.79-9.04,9.52-18.13,14.2-27.28,3.28-2.73,4.77-1.97,2.95,1.87Z"/>
        <path class="cls-56" d="M508.83,17.52c-.03.57-.01,1.77-.5,2.6l-17.41,29.58-28.23,4.05,12.23-22.39c.76-1.28,1.14-2.55,1.18-3.75,1.4-1.18,2.33-3,1.49-4.75l31.25-5.34Z"/>
        <path class="cls-11" d="M539.47,12.53l1.42.32-18.77,32.13-27.83,4.09,16.01-30.08c.83-.5.44-1.56-.47-1.57l29.65-4.89Z"/>
        <path class="cls-45" d="M568.68,7.49c1.71,2.88-.86,7.26-4.16,7.34-.57.13-1.2.5-1.64,1.27l-13.94,24.79-23.72,3.44,16.22-29.93c.44-.82.12-1.64-.56-1.54-.54-.03-1.1-.2-1.42-.32l29.22-5.04Z"/>
        <path class="cls-10" d="M586.38,9.92c-.04-.74.14-1.53-.57-2.11l-6.15,11.35c-3.08,5.69-5.05,13.35-9.5,17.84l-18.44,3.23,12.8-25.39c1.3-2.59,2.71-4.73,4.16-7.34l20.34-3.38c-.17,2.52-1.8,4.05-2.64,5.81Z"/>
        <rect class="cls-27" x="570.73" y="31.35" width="16.2" height="1.78" transform="translate(291.14 535.54) rotate(-63.43)"/>
        <g>
          <path class="cls-6" d="M477.58,22.85c4.13-.3,2.18,6.6-1.49,4.75-1.34,1.13-2.44,2.63-3.53,4.44l-13.45,22.38-18.86,2.67,2.15-5.05-.59-.41-3.57,5.82-13.43,1.39,12.77-24.2c.84-1.6,1.88-2.87.41-4.93l39.59-6.86Z"/>
          <rect class="cls-48" x="444.08" y="41.87" width="6.88" height="1.78" transform="translate(209.14 423.91) rotate(-63.43)"/>
        </g>
      </g>
      <g>
        <path class="cls-29" d="M409.63,79.1c-3.35-.82-2.17-5.14.91-5.9.15,1.16-.36,2.64.72,4.4,2.94-3.86,2.72-8.94,3.43-14.3,1.51.74,2.12,1.71,2.5,3.76,3.19-.53,4.67,2.89,6.63,3.68,5.88,2.37,11.19-.65,16.54-4.41l-5.47,26.35c-.23,1.1-3.71-.68-5.08-2.12l-8.35,37.12-11.67.06c-2.68.01-4.83-3.3-7-5.12l8.9-42.3c.14-.66-1.99-1.47-2.08-1.23Z"/>
        <path class="cls-52" d="M412.93,61.29l-2.39,11.9c-.38,1.9-1.06,3.69-.91,5.9l-2.77,11.42c-3.35,2.36-4.4.89-3.17-4.42-1.38-.12-2.09-.55-1.96-1.82l-16.29,2.45c-.65,1.92-1.74,2.74-3.28,2.45-1.66,2.22-1.9.11-1.68-2.2l6.04-26.77,1.17-1.98c2.88-.22,23.08-.19,24.02.57.78.63,1.12,1.53,1.22,2.5Z"/>
        <path class="cls-4" d="M406.87,90.52l-6.16,31.35-28.09,1.34,7.87-36.23c.09.99.54,1.95,1.68,2.2l1.79,1.24-4.66,25.12c5.16.14,10.39-.01,15.7-.46,2.54-9.11,4.69-18.44,6.46-28l2.24-.99-.14,4.39c1.38-.95,1.36-1.89,1.62-2.8.71,1.8,1.13,2.26,1.69,2.83Z"/>
        <path class="cls-38" d="M415.76,48.55l-2.83,12.75c-1.2-.49-2.58-.9-4.21-.9l-22.2-.18,3.03-12.95c.88-1.3,2.11-1.87,3.63-2.16,1.02-.2,18.35,2.11,20.56,2.47l2.02.98Z"/>
        <path class="cls-15" d="M415.76,48.55c-1.6,1.5-3.59,1.36-6.05,1.05l-10.77-1.37c-3.26-.42-6.28-1.83-9.39-.96,1.53-6.56,18.02-10.73,27.95-8.05.54,4-1.13,6.62-1.74,9.35Z"/>
        <path class="cls-12" d="M382.34,129.95c-3.77.22-6.62-.67-7.74-4.57l25.97-1.2c1.53-.07,3.66,2.32,4.4,4.43l-22.63,1.34Z"/>
        <polygon class="cls-46" points="426.53 44.73 415.79 61.73 419.68 39.65 426.53 44.73"/>
        <path class="cls-8" d="M436.33,65.83c-2.78,2.24-6.87,4.33-11.47,2.09,3.18-2.38,6.75-2.45,11.47-2.09Z"/>
        <g>
          <path class="cls-57" d="M403.7,86.1l-6.55,30.86-20.33,1.05,5.35-28.84,1.57-4.2,19.76-2.97c.5,1.87.23,3.01.2,4.09Z"/>
          <polygon class="cls-2" points="395.15 114.56 379.76 115.61 385.34 87.28 401.18 85.13 395.15 114.56"/>
        </g>
      </g>
    </g>
  </g>
  <g>
    <path class="cls-31" d="M245.99,374.9c2.38-1.71,4.44.55,2.92,2.99l2.03-.8c11.51,11.15,23.03,22.3,34.55,33.46l-.54,2.24c1.93-2.17,4.66.23,3.45,2.8l26.11,25.25c1.48,1.56,1.56,7.12.06,8.23l-5.07,3.77.16,10.85,138.51,81.04-.19,57.99-183.98,109.29-58.13,35.07-112.12-66.58L2.69,627.68l-2.68-2.22v-57.59s3.77-2.95,3.77-2.95l105.5-62.19v-51.08c-2.73,1.21-4.7,2.02-6.45,1.06-1.51-.83-1.72-2.96-1.94-4.57-.62-4.55.99-6.09,4.37-7.86l44.42-23.23,72.88-40.09c-.73-2.84,1.62-4.39,3.81-2.35l12.42-6.35,7.19,6.65Z"/>
    <g>
      <path class="cls-41" d="M447.97,602.72l.19-57.99-.19,57.99Z"/>
      <path class="cls-18" d="M.01,625.45v-57.59S.01,625.45.01,625.45Z"/>
      <g>
        <g>
          <path class="cls-14" d="M257.7,532.37c1.21-.34,1.8-.09,1.77.74l.53,48.78-15.74,8.3-.55-50.61,13.98-7.22Z"/>
          <g>
            <polygon class="cls-24" points="310.78 441.76 220.73 493.52 152.06 419.89 237.99 371.87 273.18 405.72 310.78 441.76"/>
            <rect class="cls-50" x="182.95" y="408.54" width="3.59" height="102.68" transform="translate(-263.23 247.89) rotate(-42.79)"/>
            <rect class="cls-1" x="214.12" y="469.87" width="105.08" height="3.36" transform="translate(-198.71 194.25) rotate(-29.72)"/>
          </g>
          <path class="cls-21" d="M113.56,445.61l-8.47,4.25c-1.03-1.19-1.38-4.91-.01-5.76l41.85-22.43c1,1.9,1.15,3.89,1.48,6.09-12.11,5.45-23.08,11.95-34.84,17.85Z"/>
          <path class="cls-39" d="M259.47,533.12c-.4.09-1.44-.06-1.77-.74,1.33-.69,2.9-1.98,4.86-2l.66,31.2.27,24.21-17.92,9.6c-.69.37-1.49-.6-1.36-1.09.14-.57.66-1.42,1.35-1.78l16.46-8.69-.43-36.7c-.05-4.35-1.6-8.26-.29-13.06.42-1.09-.94-2.8-1.83-.93Z"/>
          <g>
            <polygon class="cls-53" points="240.87 537.77 241.23 596.59 220.11 608.77 219.7 503.65 306.09 454.35 308.09 558.99 266.52 582.36 265.15 525.42 240.87 537.77"/>
            <g>
              <path class="cls-33" d="M302.5,545.92l-18.67,9.94-.99-39.53,17.48-9.86c2.02,2.62,1.41,5.76,1.38,8.89-.1,10.19-.75,19.49.81,30.56Z"/>
              <path class="cls-58" d="M285.91,551.53l-.03-16.27.04-15.92c.09-1.55,11.77-8.21,11.88-7.5.48,3.09,1.22,30.81.08,32.34-4.43,1.86-8.43,4.31-11.98,7.35Z"/>
              <path class="cls-19" d="M285.91,551.53l.94-12.45c1.64,3.01.48,6.22.98,9.22,2.52-.42,3.68-1.86,3.8-2.88s-.88-2.65.28-4.41l1.34,2.96c.39.86,3.25.62,3.67-.37,2.1-4.95.5-10.42.43-15.41l-.22-15.38c-4.4.96-5.08,4.33-5.06,7.4l-2.43-3.43-3.73,2.56c0-1.39.08-2.15,1.61-3l10.91-6.01.67,9.26.02,25.02-13.22,6.92Z"/>
            </g>
          </g>
          <g>
            <polygon class="cls-35" points="216.82 609.69 190.62 597.33 112.23 559.02 112.45 449.69 150.53 429.91 216.98 501.59 216.82 609.69"/>
            <g>
              <polygon class="cls-32" points="143.22 557.99 121.51 548.14 122.04 506.27 143.58 515.83 143.22 557.99"/>
              <path class="cls-37" d="M140.62,535.8l.05,14.73c-.34.51-.72.97-1.2,1.22-.65.34-12.7-5.74-13.18-6.3-.79-.93-1.13-15.07-.79-16.91.14-.79,13.72,5.51,14.72,6.07.27.15.36.63.4,1.19Z"/>
              <path class="cls-55" d="M140.74,519.74l-.15,13.83-.76.98c-4.27-1.61-8.45-3.48-12.55-5.62-.54.42-1.03.72-1.33.59-.83-.36-.29-18.24.56-17.92,4.55,1.75,10.74,4.94,14.24,8.14Z"/>
              <path class="cls-5" d="M140.74,519.74l-13.52-7.2-.8,15.04,9.5,4.56c1.65.79,3.2,1.21,4.67,1.41l.02,2.24c-6.5-1.01-9.64-5.95-14.36-6.21l.46,13.55c.09,2.64,4.59,2.83,6.13,3.74,2.95,1.74,4.75,3.61,7.82,3.65,0,.89.15,3.93-1.46,3.09l-14.52-7.55.1-35.89,14.34,6.79c1.2.57,1.63,1.49,1.62,2.76Z"/>
            </g>
            <g>
              <polygon class="cls-54" points="195.17 580.95 165.87 568.25 166.23 525.7 195.61 539.25 195.17 580.95"/>
              <g>
                <path class="cls-47" d="M172.41,531.43c1.01.63.69,1.05-.97,1.28-1.11,2.21-1,13.88.9,16.23-.7.12-1.28.28-1.43.63-.71,1.7.21,12.12.52,14.42,2.01-1.87,8.18.58,8.93,3.07,1.1-1.93,1.47-.83,1.93,1.09,1.5-1.17,3.71-.81,6.63,1.07l.39-7.29c-1.4-2.35-1.15-3.83.75-4.46,1.17-4.93,1.1-10.1.35-15.09-2.27.75-6.99-1.19-8.02-3.51-.75,1.84-1.42,1.32-2-1.59-1.51,1.22-1.95.54-.68-1.03-1.66-1.26-1.13-1.93.88-1.15l11.73,5.79v35.84s-23.38-10.5-23.38-10.5l.53-35.93,2.95,1.12Z"/>
                <path class="cls-16" d="M180.58,535.11c-.63.4-.78.75-.88,1.15-1.33,1.53-3.33,1.32-6.02-.65l-.15,10.01c3.03,1.47,8.29,5.65,2.69,5.64-1,.9-1.92,1.08-2.74.56l-.05,10.8-1.99,1.38c-.38.11-1.02-.33-1.02-1.01l-.11-26.8c0-2.21.51-3.98,2.11-4.74,2.67,1.02,5.37,2.29,8.17,3.68Z"/>
                <path class="cls-25" d="M176.22,551.25c1.87-1.95,2.51-1.41,3.17,1,1.39-1.28,2.84,2.33,2.95,3.31.09.81-.76,9.18-.98,10.99-.03.21-.45.36-.99.5-3.23-.09-6.12-1.49-8.93-3.07l.03-14.98c2.15.31,3.41,1.36,4.75,2.24Z"/>
                <path class="cls-42" d="M179.7,536.26l.68,1.03c1.41,2.03,1.59,12.93.53,14.34-.28.38-.86.54-1.53.63-1.3.15-2.2-.37-3.17-1,.95.19,1.5-.86.56-1.38l-5.26-2.9.22-14.49,7.96,3.77Z"/>
                <path class="cls-22" d="M190.4,542.38c.73,4.47.8,9.24-.11,13.71-.84,2.39-1.3,2.47-2.41.19-1.97-.06-3.9-.12-5.8-.2-1.21-4.74-1.2-11.63-.68-16.55.03-.25.44-.46.97-.66,2.45-.1,6.43.97,8.02,3.51Z"/>
                <path class="cls-30" d="M187.89,556.29c.55-.35,1.74-.21,2.41-.19l-.24,1.38c-.52,1.27,1.31,2.81,1.22,4.53l-.56,11.06-8.42-4.91c-1.02-1.55-1.13-12.07-.65-13.35l6.25,1.48Z"/>
                <path class="cls-16" d="M182.38,538.87l.24,14.99c.03,1.74,4.09,2.23,5.27,2.42-1.51.97-3.34.61-5.38-.41l-.22,12.27c-.53-.31-1.29-1.07-1.93-1.09.13-5.02,1.93-10.4-.98-14.8,1.35-4.85,1.09-9.87.99-14.97.36.55,1.24,1.62,2,1.59Z"/>
                <path class="cls-16" d="M190.05,557.47c.22-.49.24-.95.24-1.38l.11-13.71c1.43,2.27,1.58,11.4-.35,15.09Z"/>
              </g>
            </g>
          </g>
        </g>
        <g>
          <path class="cls-44" d="M198.56,605.15l19.81,9.76c16.93-3.26,33.96-6.09,51.09-8.5l82.24-43.24-39.75-22.01c-.79-5.21-1.25-10.52-1.39-15.92l-.97-57.81,133.18,77.84-236.63,138.51-178.42-103.83-21.55-12.56,102.71-60.65.38,54.38,46.3,22.72,42.98,21.33Z"/>
          <polygon class="cls-3" points="207.92 741.9 207.87 686.39 344.11 606.76 444.34 547.95 444.49 601.12 262.83 708.89 207.92 741.9"/>
          <polygon class="cls-28" points="204.36 742.25 81.14 669.3 3.85 624.52 4.01 570.01 204.53 686.29 204.36 742.25"/>
          <path class="cls-9" d="M198.56,605.15c1.71-.52,3.02.08,4.36.75l15.27,7.57,26.66-14.62,20.49-10.46,2.75-3.25,43.31-24.25-.26-14.76-.57-20.9c.42.33.83,1,.84,1.99l-.14,11.38,44.96,24.43-86.19,45.25-51.94,8.2-15.35-8.33c-1.72-.93-3.52-1.68-4.18-3.01Z"/>
        </g>
      </g>
    </g>
  </g>
  <polygon class="cls-20" points="338.42 280.25 328.75 299.93 337.36 295.7 345.3 301.07 338.42 280.25"/>
  <polygon class="cls-20" points="304.5 255.37 291.24 272.84 300.49 270.33 307.26 277.12 304.5 255.37"/>
  <polygon class="cls-20" points="264.11 260 246.08 272.48 255.66 272.97 259.98 281.53 264.11 260"/>
  <polygon class="cls-20" points="390.92 199.33 378.75 217.57 387.84 214.5 395.01 220.87 390.92 199.33"/>
  <polygon class="cls-20" points="352.57 188.08 339.32 205.54 348.57 203.03 355.34 209.83 352.57 188.08"/>
  <polygon class="cls-20" points="304.5 193.8 291.24 211.26 300.49 208.75 307.26 215.55 304.5 193.8"/>
</svg>